# xmcd
#
# Track frame offsets: 
#        151
#        22356
#        39859
#        56218
#        76705
#        101939
#        122189
#        144058
#        158346
#        172741
#        190756
#        203084
#        219210
#
# Disc length: 3248 seconds
#
# Revision: 5
# Processed by: cddbd v1.5.2PL0 Copyright (c) Steve Scherf et al.
# Submitted via: ExactAudioCopyFreeDBPlugin 1.0
#
DISCID=a10cae0d
DTITLE=亚明 - 某天·某地·某人
DYEAR=2005
DGENRE=Jazz
TTITLE0=House of The Rising Sun
TTITLE1=用爱将心偷
TTITLE2=再坐一会
TTITLE3=Have I Told You Lately That I Love You
TTITLE4=外面的世界
TTITLE5=一生何求
TTITLE6=别让我一个人醉
TTITLE7=You've Lost That Love Feeling
TTITLE8=印象
TTITLE9=Bridge Over Troubled Water
TTITLE10=雪中情
TTITLE11=Sometimes When We Touch
TTITLE12=风继续吹
EXTD=YEAR: 2004
EXTT0=
EXTT1=
EXTT2=
EXTT3=
EXTT4=
EXTT5=
EXTT6=
EXTT7=
EXTT8=
EXTT9=
EXTT10=
EXTT11=
EXTT12=
PLAYORDER=
